<svg width="777" height="169" viewBox="0 0 777 169" fill="none" xmlns="http://www.w3.org/2000/svg">
<path fill-rule="evenodd" clip-rule="evenodd" d="M85.3883 53.707C68.3653 83.27 53.9073 108.47 53.2603 109.707C52.6123 110.944 51.6943 111.957 51.2213 111.957C50.7483 111.957 44.4003 101.27 37.1143 88.207C29.8283 75.145 23.8093 64.373 23.7393 64.269C23.5293 63.964 0.994297 76.715 0.0192968 77.69C-0.505703 78.215 9.7303 97.5 24.8093 124.397C46.3893 162.889 50.6833 169.951 51.6803 168.587C53.6163 165.941 140.166 15.548 140.382 14.457C140.553 13.589 118.758 0.116018 116.995 1.78587e-05C116.634 -0.0239821 102.41 24.145 85.3883 53.707ZM451.152 87.957V162.957H464.652H478.152V135.093C478.152 98.926 478.954 94.781 487.017 89.291C497.127 82.407 511.797 87.816 515.08 99.636C515.718 101.933 516.143 115.32 516.146 133.207L516.152 162.957H529.748H543.344L542.907 127.707C542.421 88.501 542.092 86.227 535.477 76.26C529.289 66.936 518.907 61.957 505.652 61.957C496.724 61.957 489.809 63.971 483.25 68.483L478.152 71.99V42.474V12.957H464.652H451.152V87.957ZM749.152 42.579V72.201L746.902 70.546C745.665 69.635 741.735 67.464 738.169 65.721C726.978 60.248 710.899 60.645 698.328 66.703C686.761 72.277 676.961 85.185 673.658 99.197C668.121 122.677 676.497 146.468 694.365 158.016C702.662 163.379 710.731 165.295 722.799 164.767C733.989 164.279 741.263 161.547 747.804 155.379C749.799 153.497 751.594 151.957 751.792 151.957C751.99 151.957 752.152 154.432 752.152 157.457V162.957H764.152H776.152V87.957V12.957H762.652H749.152V42.579ZM150.652 63.824C137.278 67.667 124.5 77.826 118.843 89.114C108.336 110.079 112.672 135.925 129.244 151.114C150.436 170.538 183.749 169.631 204.213 149.072C219.797 133.416 223.47 111.357 213.889 90.957C210.089 82.865 199.074 71.608 191.152 67.72C179.235 61.871 162.912 60.301 150.652 63.824ZM379.358 63.454C365.153 67.438 352.376 77.628 346.17 89.921C333.527 114.966 343.968 147.424 368.533 159.443C376.617 163.398 383.661 164.932 393.797 164.945C405.129 164.96 413.543 162.547 422.113 156.824C427.71 153.087 436.152 143.738 436.152 141.278C436.152 140.425 423.223 129.865 419.343 127.547C418.477 127.03 416.103 128.607 412.331 132.205C405.807 138.428 401.07 140.391 392.917 140.249C374.73 139.934 363.304 120.988 370.195 102.572C373.776 93 382.74 86.756 393.152 86.581C401.076 86.448 407.039 89.087 412.959 95.347L417.976 100.651L427.064 93.704C432.062 89.882 436.152 86.299 436.152 85.74C436.152 83.442 428.593 74.666 423.427 70.967C414.642 64.676 408.39 62.731 395.652 62.322C388.006 62.076 383.038 62.422 379.358 63.454ZM595.843 63.458C586.922 65.91 579.841 70.101 573.152 76.887C545.014 105.432 558.129 153.403 596.796 163.373C604.632 165.393 619.951 165.421 627.6 163.429C633.919 161.783 644.96 156.347 649.382 152.705L652.112 150.457L646.415 141.294L640.718 132.13L637.985 134.076C628.128 141.095 613.752 143.727 602.746 140.527C596.17 138.616 588.517 131.875 586.489 126.207L585.326 122.957H619.68C646.081 122.957 654.214 122.668 654.813 121.707C656.54 118.936 656.435 100.905 654.654 94.325C650.521 79.059 638.735 67.594 622.816 63.356C616.395 61.646 602.238 61.7 595.843 63.458ZM234.152 94.321C234.152 111.02 234.604 127.108 235.157 130.071C236.579 137.687 241.48 147.127 246.747 152.394C249.223 154.87 254.625 158.564 258.751 160.603C265.704 164.04 267.051 164.345 277.113 164.759C286.185 165.133 289.119 164.858 294.941 163.09C307.653 159.228 317.97 149.358 322.776 136.457C324.432 132.014 324.673 127.698 324.945 97.707L325.251 63.957H311.701H298.152V95.141C298.152 124.758 298.047 126.543 296.056 130.655C290.803 141.507 274.808 143.74 266.45 134.788C261.446 129.429 261.152 127.194 261.152 94.489V63.957H247.652H234.152V94.321ZM617.92 85.505C619.958 86.356 622.703 88.043 624.02 89.255C626.832 91.839 630.099 98.498 630.13 101.707L630.152 103.957H608.211C596.143 103.957 586.031 103.57 585.739 103.098C584.979 101.867 589.736 92.696 592.464 90.134C598.716 84.26 610.022 82.205 617.92 85.505ZM176.152 88.603C193.026 95.62 196.572 121.882 182.296 134.102C177.423 138.273 172.443 139.957 164.982 139.957C146.714 139.957 134.992 119.609 142.947 101.708C148.843 88.44 162.654 82.989 176.152 88.603ZM735.774 88.784C746.671 94.398 751.983 106.82 749.207 120.193C746.081 135.25 732.284 143.754 717.808 139.545C710.922 137.543 705.885 133.298 702.385 126.547C698.81 119.65 698.629 107.802 701.992 100.871C708.197 88.086 723.672 82.549 735.774 88.784Z" fill="#5047FF"/>
</svg>
