<svg width="32" height="32" viewBox="-4 -4 149 178" fill="none" xmlns="http://www.w3.org/2000/svg">
<path fill-rule="evenodd" clip-rule="evenodd" d="M85.3883 53.707C68.3653 83.27 53.9073 108.47 53.2603 109.707C52.6123 110.944 51.6943 111.957 51.2213 111.957C50.7483 111.957 44.4003 101.27 37.1143 88.207C29.8283 75.145 23.8093 64.373 23.7393 64.269C23.5293 63.964 0.994297 76.715 0.0192968 77.69C-0.505703 78.215 9.7303 97.5 24.8093 124.397C46.3893 162.889 50.6833 169.951 51.6803 168.587C53.6163 165.941 140.166 15.548 140.382 14.457C140.553 13.589 118.758 0.116018 116.995 1.78587e-05C116.634 -0.0239821 102.41 24.145 85.3883 53.707Z" fill="#5047FF"/>
</svg>
